HIERARCHY
ROOT pelvis
{
	OFFSET 64.29973 -93.65147 84.52716
	CHANNELS 6 Xposition Yposition Zposition Zrotation Xrotation Yrotation
	JOINT left_hip
	{
		OFFSET 6.88355 -8.80780 -1.11156
		CHANNELS 3 Zrotation Xrotation Yrotation
		JOINT left_knee
		{
			OFFSET 3.46973 -37.70341 -0.28410
			CHANNELS 3 Zrotation Xrotation Yrotation
			JOINT left_ankle
			{
				OFFSET -1.13442 -39.15425 -4.26295
				CHANNELS 3 Zrotation Xrotation Yrotation
				End site
				{
					OFFSET 2.43614 -5.51931 11.44868
				}
			}
		}
	}
	JOINT right_hip
	{
		OFFSET -6.65705 -8.71512 -0.84964
		CHANNELS 3 Zrotation Xrotation Yrotation
		JOINT right_knee
		{
			OFFSET -3.93923 -38.28965 -0.60475
			CHANNELS 3 Zrotation Xrotation Yrotation
			JOINT right_ankle
			{
				OFFSET 1.41980 -39.10810 -4.10992
				CHANNELS 3 Zrotation Xrotation Yrotation
				End site
				{
					OFFSET -2.15328 -4.69517 11.80419
				}
			}
		}
	}
	JOINT spine1
	{
		OFFSET -0.25599 10.12922 -1.80284
		CHANNELS 3 Zrotation Xrotation Yrotation
		JOINT spine2
		{
			OFFSET 0.36284 13.04887 0.04183
			CHANNELS 3 Zrotation Xrotation Yrotation
			JOINT spine3
			{
				OFFSET 0.20037 4.87758 2.50506
				CHANNELS 3 Zrotation Xrotation Yrotation
				JOINT neck
				{
					OFFSET -0.20116 20.23394 -4.16057
					CHANNELS 3 Zrotation Xrotation Yrotation
					End site
					{
						OFFSET 0.49005 6.45552 5.10174
					}
				}
				JOINT left_collar
				{
					OFFSET 7.22201 11.35464 -3.26184
					CHANNELS 3 Zrotation Xrotation Yrotation
					JOINT left_shoulder
					{
						OFFSET 8.25687 3.29324 -0.58638
						CHANNELS 3 Zrotation Xrotation Yrotation
						JOINT left_elbow
						{
							OFFSET 25.15557 -1.45107 -2.70932
							CHANNELS 3 Zrotation Xrotation Yrotation
							JOINT left_wrist
							{
								OFFSET 24.01132 0.95271 -0.05525
								CHANNELS 3 Zrotation Xrotation Yrotation
								JOINT left_index1
								{
									OFFSET 9.61715 -0.96926 2.06107
									CHANNELS 3 Zrotation Xrotation Yrotation
									JOINT left_index2
									{
										OFFSET 3.03288 0.37957 0.27925
										CHANNELS 3 Zrotation Xrotation Yrotation
										End site
										{
											OFFSET 2.13839 -0.08805 0.05017
										}
									}
								}
								JOINT left_middle1
								{
									OFFSET 10.28530 -0.70896 -0.07796
									CHANNELS 3 Zrotation Xrotation Yrotation
									JOINT left_middle2
									{
										OFFSET 2.89318 0.18147 -0.42916
										CHANNELS 3 Zrotation Xrotation Yrotation
										End site
										{
											OFFSET 2.24408 -0.07859 -0.35786
										}
									}
								}
								JOINT left_pinky1
								{
									OFFSET 7.86600 -1.52795 -3.70207
									CHANNELS 3 Zrotation Xrotation Yrotation
									JOINT left_pinky2
									{
										OFFSET 1.44604 -0.05197 -1.04482
										CHANNELS 3 Zrotation Xrotation Yrotation
										End site
										{
											OFFSET 1.47467 -0.10445 -0.99795
										}
									}
								}
								JOINT left_ring1
								{
									OFFSET 9.13411 -1.00802 -2.21761
									CHANNELS 3 Zrotation Xrotation Yrotation
									JOINT left_ring2
									{
										OFFSET 2.61063 0.20958 -0.48516
										CHANNELS 3 Zrotation Xrotation Yrotation
										End site
										{
											OFFSET 2.13653 -0.08335 -0.67113
										}
									}
								}
								JOINT left_thumb1
								{
									OFFSET 3.90324 -1.95171 2.42973
									CHANNELS 3 Zrotation Xrotation Yrotation
									JOINT left_thumb2
									{
										OFFSET 1.68874 0.05734 2.24660
										CHANNELS 3 Zrotation Xrotation Yrotation
										End site
										{
											OFFSET 2.00837 -0.43621 1.39133
										}
									}
								}
							}
						}
					}
				}
				JOINT right_collar
				{
					OFFSET -7.40288 11.08050 -3.83215
					CHANNELS 3 Zrotation Xrotation Yrotation
					JOINT right_shoulder
					{
						OFFSET -8.67869 3.40042 -0.89468
						CHANNELS 3 Zrotation Xrotation Yrotation
						JOINT right_elbow
						{
							OFFSET -24.63432 -1.52370 -2.01226
							CHANNELS 3 Zrotation Xrotation Yrotation
							JOINT right_wrist
							{
								OFFSET -24.75167 0.77760 -0.44823
								CHANNELS 3 Zrotation Xrotation Yrotation
								JOINT right_index1
								{
									OFFSET -9.32253 -0.91806 2.21640
									CHANNELS 3 Zrotation Xrotation Yrotation
									JOINT right_index2
									{
										OFFSET -3.04560 0.29950 0.22042
										CHANNELS 3 Zrotation Xrotation Yrotation
										End site
										{
											OFFSET -2.11039 -0.13857 -0.02753
										}
									}
								}
								JOINT right_middle1
								{
									OFFSET -10.02932 -0.65411 -0.00121
									CHANNELS 3 Zrotation Xrotation Yrotation
									JOINT right_middle2
									{
										OFFSET -2.86958 0.14021 -0.42172
										CHANNELS 3 Zrotation Xrotation Yrotation
										End site
										{
											OFFSET -2.19525 -0.11060 -0.39414
										}
									}
								}
								JOINT right_pinky1
								{
									OFFSET -7.71351 -1.42107 -3.69706
									CHANNELS 3 Zrotation Xrotation Yrotation
									JOINT right_pinky2
									{
										OFFSET -1.44526 -0.01259 -1.06939
										CHANNELS 3 Zrotation Xrotation Yrotation
										End site
										{
											OFFSET -1.47062 -0.06391 -0.97723
										}
									}
								}
								JOINT right_ring1
								{
									OFFSET -8.92935 -0.93914 -2.18005
									CHANNELS 3 Zrotation Xrotation Yrotation
									JOINT right_ring2
									{
										OFFSET -2.59239 0.14694 -0.44435
										CHANNELS 3 Zrotation Xrotation Yrotation
										End site
										{
											OFFSET -2.11348 -0.10768 -0.67619
										}
									}
								}
								JOINT right_thumb1
								{
									OFFSET -3.54472 -1.91140 2.72098
									CHANNELS 3 Zrotation Xrotation Yrotation
									JOINT right_thumb2
									{
										OFFSET -1.69444 0.05339 2.21439
										CHANNELS 3 Zrotation Xrotation Yrotation
										End site
										{
											OFFSET -2.05200 -0.50035 1.27763
										}
									}
								}
							}
						}
					}
				}
			}
		}
	}
}
MOTION
Frames: 4
Frame Time: 0.008333
64.29973170640098 -93.65146741343784 84.52716017034602 -46.42917980546702 89.34754909975533 -104.3932352758332 1.83405701300773 -6.457181483148371 0.4007964962771301 -2.3810353520301026 9.593258614198259 -5.2721210551149085 1.466542700932652 -6.566198855741649 9.684543899281818 -2.4405363764772536 -2.596995307283888 -4.0722858403785525 -0.12429817142287995 5.949047102054493 -2.588175680551709 -0.5605142566496059 -7.110761559645513 -8.89353296213408 0.2448308945261693 8.409307228934157 1.7790344329195855 -2.6372566475698167 4.408401480522775 -3.718487278130443 -1.3841599092823131 -7.350652594318024 -0.028658848514596113 3.912268313461294 -9.60137829358506 11.356393658843931 -30.20658832797086 2.5316380831255105 -6.498078438994977 -52.47590544491218 11.853905901666689 -0.19528044004531306 15.055088003159254 -3.4087876630591696 -30.257883352886005 -3.488265494322797 1.5557709264466963 -10.306514018395644 -15.860885176585866 11.297586398608646 8.027518499862962 -73.27807813522858 3.859541368707283 -5.370823162709335 -33.59484414062674 -7.822281779669377 2.765096605022443 -81.54603125862238 -15.372876029961725 -6.495078637620739 -48.81383884314869 -13.899500583948678 -32.3241865129357 -62.12147417475573 -24.544605026724867 -22.842846418543324 -41.12434857773298 -2.7797403732639636 -9.381636897362265 -67.51463567182256 -20.894328709116714 -14.9243260793959 -75.65077720221694 66.32915628648499 90.07165505153216 18.704208374586525 -51.720505220023725 24.693861388581357 24.75298120812244 5.999109870743556 12.01152541177503 53.187274078975676 17.236026256212362 8.508137292681631 -6.6520848756284225 8.86653966619327 22.35693361845086 3.691622577720279 6.755542843568944 7.047930901752723 22.805461873913092 10.956272877999444 -7.956988958081044 58.426764454168506 6.3397323350466745 3.7959986941859007 32.989854097389696 -4.870638481560768 -3.161771046684245 59.29349058130691 -15.767177979016836 3.4032370321141805 40.12615958303819 -11.641028513091186 26.787707458140257 50.383581846632524 -22.514991477566074 14.657310855723152 35.33131564501382 0.8020277984361177 8.182150328263473 53.959215066837885 -21.475154784391993 12.226177223522692 97.55209101432843 62.428107757241804 -107.72844474046475 -22.243132500277902 -48.56344671893476 -27.15880714364243
64.28523971775077 -93.71089840230661 84.51608711816694 -44.817108210831925 89.37205298391312 -105.92791036569064 1.8937273774714496 -6.615169887601672 0.39129850804146843 -2.415015911818373 9.841636685912983 -5.097346191293472 1.2815656309069907 -6.636854994941164 9.508225950872315 -2.371460970694986 -2.4532886105882814 -4.073698673968537 -0.22383240143045086 5.7414415187841135 -2.580230314187721 -0.5030586354325872 -7.077401751785059 -8.905498473993475 0.3329796552320525 8.776593269776152 1.7660341219850952 -2.7882669245854066 3.67454689310254 -3.6269076188949625 -1.3384228666217006 -6.943657654708818 -0.11239076986853065 3.900821155000186 -9.710228362271634 11.146064314701004 -30.20940834180124 2.7785496668722365 -6.506268591295627 -52.37012402120044 11.601241238013108 -0.404393640577114 15.142482148908753 -2.9508129916835397 -30.340530718539775 -3.2704083887395408 1.0565526146437085 -10.373200204861204 -15.713012670736838 11.302036003612162 7.991694644069237 -73.31056755721751 3.885790627155773 -5.3847299219099245 -33.36854619738065 -7.760618149695785 2.7243793569694486 -81.49682708746055 -15.339556666147141 -6.484492029792592 -48.67569654907682 -13.872380465100907 -32.38586037738145 -61.99900703144727 -24.422386836218895 -22.72394288173179 -40.95288635559417 -2.795477856949552 -9.461157326863967 -67.57054060445003 -20.869882030488203 -14.917655286478618 -75.09778204735163 66.3740031356535 89.60995031801198 18.573289404060866 -51.69056656032187 24.830998315085044 24.6180061210369 5.852395257319848 11.95506556718559 53.26981918447456 17.2580866803618 8.534466931846064 -6.736640657059428 9.083900594751254 22.23822962557433 3.6620766898560677 6.463816180372263 6.961084433551521 23.15912984022952 10.990702250504055 -7.95382547170898 58.220703330844785 6.439630015440213 3.7409837708188416 33.20752327953101 -4.963923853855081 -3.1320719183093697 59.175754440149674 -15.80277908438913 3.3292924891653874 40.36913650935947 -11.83555168672798 26.856792099977856 50.3688074161017 -22.498374257890678 14.58956864257304 35.639909218943984 0.7117825168403185 8.198465891221456 53.66696779462132 -21.491272922933998 12.107793235620184 98.24014648893262 62.13921480464995 -108.39346064419985 -22.509232873099602 -48.54841492244955 -27.191006143762213
64.26061020314451 -93.77663937495659 84.51000291868138 -36.15905344084985 89.33610680161031 -114.58933042931318 1.9077540276770928 -6.880363276280042 0.31586485411736226 -2.4833326753766833 10.102907387857933 -4.979617939016921 1.214395996733015 -6.659779112267661 9.421656442828331 -2.402520278419287 -2.5523210328863106 -4.0604016926961695 -0.24359433469928313 5.705686358205255 -2.597583052035504 -0.4502375424584281 -7.092080149231725 -8.879344216936586 0.34383843460367786 8.861058221590358 1.811351926225321 -2.833858534968295 3.4361866565431733 -3.577227250477697 -1.3134491334127112 -6.844192002540797 -0.10646425145964647 3.8283916402247065 -9.759733338881528 11.00014834680621 -30.165711021975717 2.8175081071642825 -6.551553773195803 -52.44181098414308 11.574702219333096 -0.4949134943983778 15.202824250620118 -2.90221152891819 -30.326548342600457 -3.3085287773744114 0.9155725993175584 -10.436948242618366 -15.592711205603731 11.291235707823878 7.9245717978194445 -73.37404661609546 3.8774879426570967 -5.398848560269409 -33.20850641268187 -7.691925795652173 2.6583651621184297 -81.66488687495247 -15.304153707503014 -6.5360796255172895 -48.58798608963654 -13.86313533739569 -32.409064528292255 -61.95738014999581 -24.338333637424313 -22.734323659404485 -40.79302076715914 -2.8169469172757493 -9.516323538616232 -67.6554892173269 -20.84087294210321 -14.912829802964747 -74.25529508949155 66.4601838557521 88.87093939304724 18.34422748220942 -51.646308762676554 24.93660573777084 24.539995015250206 5.848809857157696 11.993174210523303 53.28933444116584 17.222185704596 8.523466991230192 -6.817019038190703 9.056254759853335 22.21487392298221 3.6803347056359 6.3737130240595326 6.9580208666574705 23.30341000684628 10.939300710646 -7.940296188937431 58.00927231470177 6.43848922952932 3.712345574037306 33.352623035558985 -4.954446832051674 -3.1326166547533854 59.138997134274355 -15.83787541844179 3.3356272600844212 40.29772634723083 -11.706017035147964 26.767009969954543 50.45552329046899 -22.67091874528974 14.721718018707387 35.72948801731911 0.7571808746484134 8.15469336224183 53.552682504752525 -21.49957369312663 12.081095323268261 98.06637835550848 62.226541305582586 -108.18634196016689 -22.433172349555786 -48.480374170259864 -27.136559879382073
64.23521138147038 -93.85694408408924 84.513784791299 -24.985255129118524 89.31328583014759 -125.79140245506098 1.929612349756718 -7.120341713598983 0.25349766718764793 -2.4947366922450263 10.296731804982558 -4.883626490984301 1.1987660822786927 -6.679986647856585 9.408936519839365 -2.385176682503131 -2.7073703642247735 -4.025256021446123 -0.2447922130584901 5.703671329783256 -2.621376932735227 -0.4168112862772082 -7.072691028744705 -8.874699935190847 0.3818496746167007 8.936015812752478 1.8388400515280199 -2.8495906020975585 3.2809027698714828 -3.533711761976682 -1.2849384282344172 -6.840010371831723 -0.06399535413938685 3.7493267243673363 -9.805227056348038 10.86571792449119 -30.114104857792956 2.8218218518051397 -6.615007978075141 -52.555865870840755 11.599400055681091 -0.5403015085406299 15.222158246756061 -2.963735196087511 -30.323364687504213 -3.2738490699178318 0.7888892344570163 -10.464456365106631 -15.851405493380735 11.204239047850258 7.837762380477977 -73.33125040374243 3.913545088685221 -5.293109384720637 -33.59198055742197 -7.712786240869108 2.549152429229543 -81.58050639588922 -15.271868298524089 -6.538342136911871 -49.08732676322779 -13.929468539505487 -32.61269453481617 -61.76734615709631 -24.211012070668417 -22.65666292543874 -41.22150990214685 -2.835969864653119 -9.577797821042209 -67.45701761190031 -20.87718129508789 -14.951565330187494 -73.61421620342485 66.65606887367527 88.18312873692955 17.697331313022737 -51.71700552715641 24.486471150883446 24.46046948534425 5.90925762927613 12.119001659114492 53.279652916709104 17.184396425692288 8.513639819076078 -6.875353844961119 8.943901493354801 22.151909970235522 3.623585988416074 6.311041641457966 6.9805469486442435 23.34491764528414 10.935491801611622 -7.925088572714016 58.04206454477016 6.42571301344553 3.699813055508386 33.33670878590641 -4.92555966407872 -3.1513587918289936 59.248621707580156 -15.869704929579424 3.3734960204833584 40.39850211320562 -11.74140866546873 26.77434666395361 50.70427017898715 -22.776338250749316 14.93786767663581 35.66905515163236 0.7601370679686935 8.110979830174728 53.66571167956684 -21.491829293564503 12.089112423988968 98.05732315286126 62.260318661648604 -108.11168390990397 -22.46084538135989 -48.35063017804111 -27.231893459424754
